<?xml version="1.0" standalone="no"?>
<!DOCTYPE svg PUBLIC "-//W3C//DTD SVG 20010904//EN"
 "http://www.w3.org/TR/2001/REC-SVG-20010904/DTD/svg10.dtd">
<svg version="1.0" xmlns="http://www.w3.org/2000/svg"
 width="900.000000pt" height="900.000000pt" viewBox="0 0 900.000000 900.000000"
 preserveAspectRatio="xMidYMid meet">
<metadata>
Created by potrace 1.10, written by Peter Selinger 2001-2011
</metadata>
<g transform="translate(0.000000,900.000000) scale(0.100000,-0.100000)"
fill="#444" stroke="none">
<path d="M3880 7371 c-103 -10 -301 -51 -390 -82 -184 -63 -361 -144 -471
-216 -24 -15 -48 -30 -54 -33 -98 -49 -353 -278 -466 -418 -57 -70 -156 -215
-172 -252 -4 -8 -17 -31 -28 -50 -33 -53 -80 -147 -89 -178 -5 -15 -18 -52
-30 -82 -23 -58 -49 -162 -57 -220 -2 -19 -6 -44 -8 -56 -3 -12 -47 -52 -107
-97 -210 -154 -409 -384 -504 -582 -10 -22 -24 -47 -30 -55 -5 -8 -18 -35 -28
-60 -10 -25 -24 -58 -31 -75 -22 -54 -37 -99 -45 -140 -4 -22 -12 -60 -18 -85
-33 -140 -42 -223 -42 -398 0 -120 5 -209 15 -260 41 -216 59 -286 108 -412
29 -78 33 -85 87 -185 123 -228 288 -420 495 -577 93 -71 101 -79 118 -130 9
-30 17 -60 17 -66 0 -11 83 -196 100 -222 6 -8 14 -24 19 -35 20 -46 178 -273
239 -344 76 -88 198 -210 262 -262 37 -30 210 -149 286 -196 36 -23 283 -143
293 -143 6 0 25 -6 43 -14 18 -8 60 -22 93 -31 33 -10 77 -24 98 -31 20 -8 50
-14 66 -14 16 0 58 -8 93 -17 93 -25 495 -26 586 -1 35 10 74 18 86 18 21 0
61 11 170 47 45 15 53 15 100 0 28 -8 78 -22 111 -30 33 -8 80 -20 105 -26
142 -36 462 -39 635 -6 132 25 297 68 385 100 64 23 278 129 323 159 21 14 40
26 42 26 5 0 101 69 165 118 84 65 234 209 302 290 89 106 138 168 138 175 0
3 18 32 39 65 93 139 200 382 201 457 1 29 25 54 120 126 112 84 234 209 334
344 45 61 86 117 89 125 4 8 16 29 27 45 17 27 30 53 92 180 32 66 75 187 89
250 80 368 81 585 5 925 -15 67 -29 111 -52 168 -8 18 -14 37 -14 43 0 5 -25
61 -55 123 -51 104 -132 236 -187 303 -69 84 -226 235 -313 301 -55 41 -105
81 -112 89 -6 8 -15 45 -18 81 -7 68 -28 153 -50 207 -7 17 -21 50 -30 75 -26
68 -106 230 -137 276 -16 23 -28 45 -28 48 0 4 -38 57 -84 119 -93 123 -243
277 -351 359 -38 29 -72 56 -75 59 -18 22 -176 115 -285 168 -71 35 -138 68
-148 72 -35 18 -224 78 -292 93 -214 47 -230 49 -420 50 -195 0 -199 0 -400
-51 -33 -8 -78 -22 -99 -31 -51 -21 -141 -21 -192 -1 -21 9 -75 24 -119 34
-44 9 -107 23 -140 31 -72 16 -301 25 -405 15z m242 -297 c15 -9 8 -23 -14
-29 -13 -4 -69 -29 -126 -57 -348 -169 -636 -471 -792 -833 -25 -56 -49 -130
-50 -147 0 -10 -9 -27 -20 -38 -17 -17 -29 -19 -137 -13 -127 6 -327 -14 -433
-43 -76 -21 -106 -17 -103 16 6 53 78 202 155 317 202 304 443 516 758 668
150 72 200 90 395 139 114 29 334 40 367 20z m1243 5 c149 -20 316 -64 430
-114 231 -101 396 -204 537 -334 27 -25 56 -49 63 -54 29 -16 196 -217 250
-302 65 -100 144 -251 156 -299 4 -17 11 -41 14 -53 7 -21 4 -23 -24 -23 -17
0 -57 6 -89 14 -170 43 -331 55 -450 35 -63 -11 -66 -11 -84 12 -10 13 -21 35
-24 49 -9 39 -38 113 -84 210 -23 48 -30 62 -72 128 -16 24 -28 45 -28 48 0
14 -130 174 -208 255 -83 88 -218 198 -327 266 -65 41 -222 119 -257 127 -16
3 -28 13 -28 21 0 13 8 15 120 23 14 1 61 -3 105 -9z m-661 -175 c132 -34 171
-46 291 -91 58 -22 175 -82 253 -128 150 -90 311 -233 414 -368 112 -147 212
-345 206 -406 -3 -31 -7 -34 -88 -61 -100 -35 -120 -37 -120 -12 0 43 -67 203
-121 287 -10 17 -23 40 -29 53 -17 39 -208 226 -278 273 -177 116 -346 175
-565 196 -67 6 -226 -17 -302 -43 -23 -8 -46 -14 -53 -14 -17 0 -136 -57 -200
-96 -166 -99 -335 -277 -401 -419 -39 -86 -57 -128 -76 -180 -22 -58 -23 -60
-56 -57 -19 1 -51 9 -72 17 -20 8 -46 15 -56 15 -38 0 -45 25 -26 93 18 58 70
177 98 222 87 139 251 318 377 413 66 49 214 142 227 142 3 0 14 6 22 13 9 7
36 21 61 31 25 10 59 24 75 31 50 22 107 41 170 59 33 10 78 23 100 31 53 18
77 18 149 -1z m111 -575 c179 -55 259 -103 378 -229 131 -136 195 -261 200
-388 l2 -61 -370 -371 c-244 -244 -376 -369 -387 -368 -10 2 -185 170 -389
373 l-371 370 7 56 c11 105 65 231 139 328 51 65 162 172 203 195 77 41 175
86 189 86 8 0 25 5 37 12 27 15 161 26 242 20 33 -2 87 -12 120 -23z m-1736
-673 c8 -9 11 -47 9 -107 l-3 -94 -160 -6 c-88 -3 -189 -11 -225 -19 -118 -24
-247 -67 -301 -99 -19 -12 -41 -24 -49 -28 -57 -25 -186 -122 -245 -183 -38
-40 -77 -80 -86 -89 -9 -9 -43 -57 -75 -107 -56 -85 -81 -130 -109 -199 -7
-16 -20 -47 -29 -68 -9 -21 -16 -46 -16 -57 0 -10 -7 -45 -15 -77 -21 -81 -21
-390 1 -481 22 -95 46 -173 60 -202 7 -14 22 -45 34 -70 53 -112 121 -210 209
-304 51 -53 162 -146 175 -146 3 0 24 -13 48 -28 24 -16 72 -42 108 -59 161
-77 242 -94 470 -100 102 -3 191 -10 198 -16 13 -10 18 -190 6 -221 -13 -33
-400 -15 -524 24 -19 6 -57 18 -85 26 -230 72 -505 309 -662 569 -20 34 -113
223 -113 231 0 4 -13 41 -29 83 -57 152 -66 214 -66 471 0 241 6 289 52 430
23 71 75 193 90 211 7 8 13 20 13 25 0 18 148 233 192 280 24 25 44 50 46 54
2 5 40 40 85 77 169 141 291 206 486 261 80 22 154 29 337 30 128 2 164 -1
173 -12z m3576 -11 c33 -9 75 -23 93 -31 18 -8 40 -14 48 -14 14 0 98 -40 174
-82 112 -61 244 -174 347 -296 46 -53 83 -100 83 -103 0 -4 16 -31 36 -60 36
-54 83 -147 124 -249 76 -188 85 -241 85 -505 -1 -225 -5 -263 -52 -425 -30
-107 -117 -299 -168 -374 -14 -20 -25 -39 -25 -42 0 -16 -135 -179 -210 -253
-142 -142 -293 -231 -485 -287 -95 -27 -230 -44 -367 -44 -163 0 -158 -4 -158
128 0 118 0 118 160 125 116 6 176 17 270 52 173 63 255 117 388 252 175 180
292 413 321 643 32 256 16 440 -56 635 -58 155 -143 285 -273 416 -198 201
-407 292 -725 318 l-80 6 -3 95 c-2 81 0 97 15 108 27 21 376 11 458 -13z
m-3652 -485 c101 -15 182 -58 280 -149 45 -43 232 -226 415 -408 286 -284 332
-334 324 -350 -21 -38 -749 -751 -792 -776 -113 -65 -227 -83 -410 -67 -199
17 -349 82 -482 209 -173 163 -259 329 -294 569 -17 118 -17 128 0 220 28 155
78 294 122 343 8 8 14 19 14 24 0 29 150 181 236 241 65 44 185 104 210 104 8
0 25 5 37 12 22 11 171 35 235 37 18 1 66 -4 105 -9z m3448 -26 c16 -8 34 -14
42 -14 22 0 147 -68 204 -111 73 -55 165 -150 210 -217 48 -73 103 -185 103
-210 0 -11 7 -39 15 -62 25 -70 21 -377 -6 -483 -38 -151 -150 -343 -254 -436
-48 -44 -160 -119 -205 -138 -116 -49 -147 -55 -273 -51 -109 3 -128 6 -179
31 -86 42 -141 92 -521 470 l-351 347 35 36 c19 20 204 206 412 414 387 387
420 414 522 441 44 12 214 0 246 -17z m-1444 -1874 c191 -190 354 -353 361
-362 35 -44 -74 -231 -208 -356 -36 -34 -104 -84 -130 -95 -8 -4 -22 -11 -30
-15 -74 -42 -157 -67 -272 -82 -285 -36 -571 93 -739 335 -41 58 -102 184 -95
194 3 3 166 168 363 367 262 264 364 361 380 360 14 -1 140 -118 370 -346z
m673 -533 c19 -7 45 -18 57 -25 12 -7 28 -12 36 -12 8 0 25 -8 38 -19 l23 -19
-29 -58 c-58 -115 -173 -271 -276 -374 -58 -58 -215 -184 -284 -227 -35 -22
-224 -113 -234 -113 -6 0 -25 -6 -43 -14 -34 -14 -98 -33 -208 -61 -83 -22
-190 -22 -266 0 -182 53 -235 72 -318 114 -294 151 -511 346 -657 591 -82 137
-84 158 -15 179 17 5 51 17 75 26 24 9 50 14 57 11 7 -3 28 -35 47 -73 53
-106 103 -179 175 -255 205 -217 479 -338 761 -338 108 0 299 28 338 49 12 6
30 11 40 11 23 1 171 75 248 125 69 45 217 189 261 255 16 25 52 89 79 142 28
54 52 98 55 98 3 0 21 -6 40 -13z m-3099 -99 c80 -19 129 -23 337 -26 l243 -3
21 -47 c42 -95 53 -118 96 -191 169 -290 427 -529 746 -689 27 -13 60 -28 74
-31 14 -4 27 -12 30 -19 6 -18 -125 -15 -223 4 -44 8 -116 22 -160 31 -125 24
-217 54 -355 116 -19 9 -42 18 -50 21 -8 3 -22 10 -30 16 -8 5 -64 38 -125 74
-150 88 -366 276 -490 427 -110 134 -215 291 -215 322 0 10 1 17 3 17 2 0 46
-10 98 -22z m4195 -3 c-21 -83 -211 -343 -357 -486 -197 -195 -383 -316 -624
-406 -181 -68 -440 -123 -577 -123 -76 0 -109 13 -66 25 55 15 153 59 228 102
41 24 213 148 243 176 6 7 38 34 69 60 73 61 245 266 305 362 23 36 113 224
113 234 0 25 47 31 230 31 130 0 211 5 253 14 185 43 191 43 183 11z"/>
</g>
</svg>
